<svg width="23" height="27" viewBox="0 0 23 27" fill="none" xmlns="http://www.w3.org/2000/svg">
<path fill-rule="evenodd" clip-rule="evenodd" d="M7.6907 1.16211C7.6907 0.609825 8.13841 0.162109 8.6907 0.162109H14.1452C14.6975 0.162109 15.1452 0.609825 15.1452 1.16211C15.1452 1.71439 14.6975 2.16211 14.1452 2.16211H8.6907C8.13841 2.16211 7.6907 1.71439 7.6907 1.16211ZM11.418 5.85442C6.46174 5.85442 2.41797 9.93828 2.41797 15.0083C2.41797 20.0782 6.46174 24.1621 11.418 24.1621C16.3742 24.1621 20.418 20.0782 20.418 15.0083C20.418 9.93828 16.3742 5.85442 11.418 5.85442ZM0.417969 15.0083C0.417969 8.86261 5.3285 3.85442 11.418 3.85442C17.5074 3.85442 22.418 8.86261 22.418 15.0083C22.418 21.1539 17.5074 26.1621 11.418 26.1621C5.3285 26.1621 0.417969 21.1539 0.417969 15.0083ZM16.6197 9.72607C17.0132 10.1136 17.018 10.7467 16.6305 11.1402L12.1305 15.7095C11.7429 16.103 11.1098 16.1078 10.7163 15.7203C10.3228 15.3327 10.318 14.6996 10.7055 14.3061L15.2055 9.73686C15.593 9.34337 16.2262 9.33854 16.6197 9.72607Z" fill="#00875F"/>
</svg>
